<svg width="24" height="25" viewBox="0 0 24 25" fill="none" xmlns="http://www.w3.org/2000/svg">
<g clip-path="url(#clip0_1001_12105)">
<path d="M19 5.5V9.5H4V5.5H19ZM19 15.5V19.5H4V15.5H19ZM20 3.5H3C2.45 3.5 2 3.95 2 4.5V10.5C2 11.05 2.45 11.5 3 11.5H20C20.55 11.5 21 11.05 21 10.5V4.5C21 3.95 20.55 3.5 20 3.5ZM20 13.5H3C2.45 13.5 2 13.95 2 14.5V20.5C2 21.05 2.45 21.5 3 21.5H20C20.55 21.5 21 21.05 21 20.5V14.5C21 13.95 20.55 13.5 20 13.5Z" fill="white"/>
</g>
<defs>
<clipPath id="clip0_1001_12105">
<rect width="24" height="24" fill="white" transform="translate(0 0.5)"/>
</clipPath>
</defs>
</svg>
