<svg width="24" height="24" viewBox="0 0 24 24" fill="none" xmlns="http://www.w3.org/2000/svg">
<path fill-rule="evenodd" clip-rule="evenodd" d="M4.99858 0.0730013C4.88639 0.142385 4.72438 0.631586 4.63828 1.15991C4.36492 2.83967 3.28671 4.77324 1.47536 6.83219C1.00455 7.36737 0.50315 8.02961 0.361372 8.30397C-0.0504188 9.10013 -0.113951 10.2665 0.189667 11.4517C0.511342 12.7076 0.884177 13.3513 2.03846 14.645C4.15175 17.0136 4.59163 19.6427 3.35258 22.4998C2.8918 23.5621 2.92207 23.9992 3.45641 23.9992C3.83041 23.9992 4.22532 23.3274 4.73375 21.8257C5.17931 20.5102 5.14537 18.2085 4.66202 16.9772C4.46356 16.4714 4.30122 16.0541 4.30122 16.0499C4.30106 16.0456 4.99707 16.0717 5.84757 16.1076C7.64738 16.1837 8.76522 15.8568 10.0429 14.8814C10.7443 14.3457 10.8912 14.3021 11.9918 14.3021C13.0924 14.3021 13.2394 14.3457 13.9408 14.8814C15.2198 15.8578 16.3359 16.1837 18.1409 16.1073C19.494 16.0501 19.6778 16.0748 19.5778 16.3005C19.1304 17.311 18.8304 18.9878 18.9167 19.9971C19.0744 21.8446 19.9419 23.9992 20.5281 23.9992C21.0618 23.9992 21.0815 23.5936 20.6058 22.4045C19.4352 19.4787 19.8898 16.9089 21.9872 14.5927C23.0338 13.4371 23.439 12.7522 23.7843 11.556C24.1685 10.2255 24.0364 8.97257 23.4123 8.02694C23.1542 7.63571 22.4314 6.68707 21.8063 5.91849C20.4361 4.23438 19.5417 2.50379 19.3638 1.19234C19.234 0.236681 18.9919 -0.121609 18.5822 0.0357178C18.466 0.0801906 18.3249 0.236848 18.2685 0.383475C18.1246 0.758818 18.4797 2.34462 18.9516 3.43437L19.3502 4.35426L18.6656 3.63433C17.938 2.8691 17.4601 2.77748 17.3732 3.38689C17.3125 3.81072 18.3036 4.96785 19.3462 5.69044C19.7119 5.94374 19.9757 6.2084 19.9326 6.27829C19.8893 6.34834 19.5158 6.45635 19.1023 6.51821C18.689 6.58023 17.8341 6.88937 17.2028 7.20519C15.7036 7.95538 14.5045 9.22369 13.7067 10.9038L13.095 12.1918L12.8853 11.7005C12.7701 11.4303 12.6723 10.6314 12.6681 9.92555C12.6614 8.77445 12.7215 8.52517 13.2499 7.51132C13.7811 6.49229 13.8137 6.35536 13.5811 6.12263C13.2417 5.78324 12.8554 6.0178 12.4098 6.83386C12.2259 7.17075 12.0378 7.44645 11.9918 7.44645C11.9459 7.44645 11.7578 7.17075 11.5739 6.83386C11.1333 6.02683 10.7416 5.7834 10.4132 6.1126C10.195 6.33145 10.2338 6.49513 10.7446 7.50915C11.2452 8.50326 11.3231 8.82059 11.3231 9.8667C11.3231 11.0379 11.086 12.1286 10.8315 12.1286C10.7631 12.1286 10.621 11.8407 10.5155 11.4888C10.2377 10.561 9.15093 8.95668 8.29892 8.21586C7.40144 7.43575 5.83302 6.66099 4.85379 6.51419C3.95012 6.3786 3.84797 6.22596 4.41341 5.85546C5.14754 5.37445 6.31788 4.23371 6.56248 3.7609C6.73519 3.42685 6.74438 3.26986 6.59976 3.12524C6.27491 2.80038 6.01175 2.90538 5.30035 3.64369L4.61554 4.35426L4.96062 3.64871C5.34499 2.86308 5.80577 1.22645 5.80577 0.6468C5.80577 0.227319 5.3144 -0.12211 4.99858 0.0730013ZM4.62089 7.53774C6.04452 7.87329 7.15333 8.49858 8.07773 9.48685C8.95966 10.4296 9.80364 12.1174 9.86165 13.0539C9.89927 13.6633 9.84895 13.7417 9.09224 14.2526C8.03977 14.9632 7.14497 15.1932 5.80577 15.0978C3.97269 14.9672 2.17305 13.7472 1.52485 12.1962C0.773999 10.3989 0.880666 9.15781 1.88732 7.98179C2.57598 7.17727 2.88127 7.12762 4.62089 7.53774ZM22.0785 7.93933C22.406 8.30197 22.7586 8.91238 22.8617 9.29575C23.3595 11.144 22.1111 13.5544 20.1111 14.6061C19.3773 14.9921 19.0643 15.0516 17.7599 15.053C16.411 15.0543 16.1647 15.0043 15.3811 14.5701C14.0297 13.8213 13.8915 13.6093 14.1387 12.6645C14.9695 9.49036 17.5971 7.3973 20.8753 7.29849C21.3818 7.2831 21.5819 7.38977 22.0785 7.93933ZM12.2247 12.7275C12.3719 13.111 12.36 13.1318 11.9918 13.1318C11.8079 13.1318 11.6574 13.1003 11.6574 13.0619C11.6574 12.8579 11.878 12.463 11.9918 12.463C12.0641 12.463 12.1689 12.582 12.2247 12.7275Z" fill="#1C1C1C"/>
</svg>
