<svg width="70" height="66" viewBox="0 0 70 66" fill="none" xmlns="http://www.w3.org/2000/svg">
<rect x="31.5771" y="65.0536" width="38" height="53" rx="3.5" transform="rotate(-135 31.5771 65.0536)" fill="white"/>
<rect x="31.5771" y="65.0536" width="38" height="53" rx="3.5" transform="rotate(-135 31.5771 65.0536)" stroke="#1C1C1C"/>
<rect x="1.41002" y="31.832" width="38" height="53" rx="3.5" transform="rotate(-52.6638 1.41002 31.832)" fill="white"/>
<rect x="1.41002" y="31.832" width="38" height="53" rx="3.5" transform="rotate(-52.6638 1.41002 31.832)" stroke="#1C1C1C"/>
<rect x="5.5" y="12.5" width="53" height="41" rx="3.5" fill="#1C1C1C"/>
<path d="M15.5156 43L18.123 25.8125H20.5547L23.3965 43H21.4922L21.0039 39.7188H17.8887L17.4395 43H15.5156ZM18.1133 38.0781H20.75L19.3926 28.9961H19.3633L18.1133 38.0781ZM25.3008 43V25.8125H28.5332C29.4316 25.8125 30.1315 26.0013 30.6328 26.3789C31.1341 26.75 31.4857 27.2839 31.6875 27.9805C31.8893 28.6771 31.9902 29.5104 31.9902 30.4805L32 38.0293C32 39.1882 31.8828 40.1354 31.6484 40.8711C31.4206 41.6003 31.0462 42.1374 30.5254 42.4824C30.0111 42.8275 29.3242 43 28.4648 43H25.3008ZM27.3125 41.3691H28.3477C28.7122 41.3691 29.015 41.291 29.2559 41.1348C29.4967 40.972 29.6758 40.6725 29.793 40.2363C29.9167 39.8001 29.9785 39.1686 29.9785 38.3418V30.4316C29.9785 29.3509 29.8516 28.5794 29.5977 28.1172C29.3438 27.6484 28.9271 27.4141 28.3477 27.4141H27.3125V41.3691ZM34.6172 43V25.8125H37.7227C38.6016 25.8125 39.2819 25.9427 39.7637 26.2031C40.2454 26.4635 40.584 26.877 40.7793 27.4434C40.9746 28.0098 41.0755 28.7552 41.082 29.6797V30.0508C41.082 31.0078 40.9909 31.7891 40.8086 32.3945C40.6328 32.9935 40.291 33.4264 39.7832 33.6934C40.1934 33.8561 40.5124 34.1393 40.7402 34.543C40.9681 34.9466 41.1276 35.4316 41.2188 35.998C41.3164 36.5645 41.3652 37.1732 41.3652 37.8242V38.1855C41.3522 39.3053 41.2383 40.2201 41.0234 40.9297C40.8151 41.6393 40.4668 42.1634 39.9785 42.502C39.4902 42.834 38.8229 43 37.9766 43H34.6172ZM36.6387 41.3691H37.8789C38.263 41.3691 38.5592 41.2747 38.7676 41.0859C38.9759 40.8971 39.1224 40.5684 39.207 40.0996C39.2917 39.6243 39.334 38.9668 39.334 38.127V37.5312C39.334 36.4701 39.2493 35.7083 39.0801 35.2461C38.9108 34.7773 38.5462 34.543 37.9863 34.543H36.6387V41.3691ZM36.6387 32.9902H37.7812C38.0547 32.9902 38.276 32.9609 38.4453 32.9023C38.6146 32.8372 38.7448 32.7103 38.8359 32.5215C38.9336 32.3327 38.9987 32.0527 39.0312 31.6816C39.0638 31.3105 39.0801 30.8125 39.0801 30.1875V29.709C39.0801 29.0579 39.0312 28.5729 38.9336 28.2539C38.8359 27.9349 38.6797 27.7233 38.4648 27.6191C38.2565 27.515 37.9798 27.4629 37.6348 27.4629H36.6387V32.9902ZM43.582 43V25.8125H45.6035V41.3301H48.7773V43H43.582Z" fill="white"/>
<rect x="5.5" y="12.5" width="53" height="41" rx="3.5" stroke="#1C1C1C"/>
</svg>
