<svg width="24" height="24" viewBox="0 0 24 24" fill="none" xmlns="http://www.w3.org/2000/svg">
<path d="M11.0821 2.11573C11.4302 1.31285 12.5688 1.31285 12.917 2.11573L14.9242 6.74463C15.214 7.41294 15.8443 7.87083 16.5694 7.93993L21.5921 8.41853C22.4632 8.50155 22.8151 9.58442 22.1591 10.1636L18.377 13.5031C17.831 13.9852 17.5902 14.7261 17.7486 15.4371L18.8455 20.3618C19.0357 21.216 18.1146 21.8852 17.361 21.4403L13.0163 18.8753C12.389 18.505 11.61 18.505 10.9828 18.8753L6.63805 21.4403C5.88447 21.8852 4.96332 21.216 5.15358 20.3618L6.25048 15.4371C6.40884 14.7261 6.16812 13.9852 5.62207 13.5031L1.84 10.1636C1.184 9.58441 1.53585 8.50155 2.40702 8.41853L7.42964 7.93993C8.15479 7.87083 8.78503 7.41294 9.07483 6.74463L11.0821 2.11573Z" fill="#1C1C1C"/>
</svg>
